<?xml version="1.0" encoding="UTF-8"?>
<!DOCTYPE svg PUBLIC "-//W3C//DTD SVG 1.0//EN" "http://www.w3.org/TR/2001/REC-SVG-20010904/DTD/svg10.dtd">
<!-- Creator: CorelDRAW 2017 -->
<svg xmlns="http://www.w3.org/2000/svg" xml:space="preserve" width="9.22646in" height="5.35739in" version="1.0" style="shape-rendering:geometricPrecision; text-rendering:geometricPrecision; image-rendering:optimizeQuality; fill-rule:evenodd; clip-rule:evenodd"
viewBox="0 0 8311 4826"
 xmlns:xlink="http://www.w3.org/1999/xlink">
 <defs>
  <style type="text/css">
   <![CDATA[
    .str0 {stroke:#344C82;stroke-width:18.7666}
    .fil1 {fill:#344C82}
    .fil0 {fill:#344C82;fill-rule:nonzero}
   ]]>
  </style>
 </defs>
 <g id="Layer_x0020_1">
  <metadata id="CorelCorpID_0Corel-Layer"/>
  <g id="_3201290821056">
   <path class="fil0 str0" d="M1238 3352c13,0 19,16 19,47 0,32 -6,60 -18,85 -12,25 -26,44 -43,58 -17,14 -36,25 -57,34 -70,31 -136,30 -198,-2 -31,-16 -55,-36 -71,-59 -16,-23 -30,-50 -40,-81 -15,-47 -23,-97 -23,-149 0,-52 5,-101 15,-146 10,-45 25,-89 45,-130 20,-41 49,-74 87,-99 38,-25 81,-38 130,-38 21,0 43,3 66,10 23,7 41,15 56,26 14,10 27,26 39,47 11,21 17,46 17,74 0,30 -7,58 -22,82 -7,11 -17,21 -32,30 -14,9 -32,13 -51,13 -30,0 -52,-13 -64,-40 -5,-11 -8,-22 -8,-35 0,-13 4,-20 13,-22 9,-3 18,-10 26,-22 8,-12 12,-26 12,-41 0,-13 -3,-23 -10,-33 -13,-16 -31,-25 -54,-25 -24,0 -45,11 -65,33 -19,22 -34,49 -44,82 -20,66 -30,126 -30,182 0,55 8,100 23,133 18,41 42,69 70,83 18,9 38,13 61,13 39,0 74,-17 105,-52 13,-14 24,-30 33,-49 3,-6 8,-9 13,-9zm582 104c0,46 -15,80 -44,103 -29,22 -70,34 -123,34 -84,0 -146,-28 -186,-84 -40,-56 -60,-129 -60,-219 0,-14 1,-36 2,-63l-55 0c-5,0 -8,-2 -8,-6 0,-11 6,-25 17,-40 11,-16 23,-24 37,-24l19 0c9,-47 23,-89 42,-125 19,-36 40,-64 61,-84 21,-20 45,-36 71,-47 41,-20 84,-30 128,-30 45,0 73,7 84,22 5,7 8,21 8,40 0,19 -2,29 -7,29 -1,0 -4,-1 -9,-4 -17,-8 -39,-12 -64,-12 -56,0 -100,20 -131,59 -31,40 -52,90 -63,152 50,-1 118,-1 203,-1 7,0 10,2 10,7 0,11 -5,24 -16,40 -11,16 -22,24 -36,24l-170 0c-1,8 -1,25 -1,52 0,27 5,55 14,84 10,29 27,54 53,75 26,20 60,31 101,31 41,0 76,-9 105,-28 3,-3 6,-4 9,-4 5,0 8,7 8,21zm498 -187l-1 -118c0,-117 -4,-194 -12,-232 -1,-5 -2,-8 -2,-11 0,-11 11,-21 34,-29 22,-8 40,-12 53,-12 13,0 20,4 20,12 0,1 -1,4 -2,11 -15,81 -23,210 -23,386 0,121 7,207 21,260 3,9 4,13 4,14 0,14 -15,25 -45,34 -30,9 -52,13 -64,13 -20,0 -33,-5 -40,-14 -14,-18 -38,-70 -71,-156 -33,-85 -61,-165 -85,-239l-38 -111c-1,-3 -3,-5 -5,-5 -3,0 -6,2 -9,7 -3,61 -5,122 -5,184 0,61 0,108 1,141 1,33 2,58 3,75 1,17 3,31 4,41 1,10 2,18 3,22 1,5 1,8 1,10 0,13 -11,22 -33,29 -22,7 -41,10 -59,10 -17,0 -26,-4 -26,-12 0,-4 1,-9 3,-15 2,-6 4,-13 7,-23 7,-23 11,-65 14,-126 3,-61 4,-130 4,-208 0,-78 -1,-135 -3,-170 -3,-58 -9,-97 -18,-117 -2,-2 -3,-5 -3,-8 0,-11 17,-21 52,-31 35,-10 62,-15 81,-15 19,0 31,0 34,1 9,-1 15,5 17,16 19,69 46,150 80,244 35,94 65,165 92,214 3,3 6,5 8,5 3,0 5,-27 5,-81zm439 -331c-12,0 -22,2 -31,6 -9,4 -13,9 -13,15 -8,28 -12,110 -12,247 0,137 0,214 -1,231 13,20 32,30 58,30 47,0 82,-26 106,-78 24,-52 36,-117 36,-195 0,-78 -12,-140 -35,-187 -23,-46 -59,-70 -109,-70zm-189 651c-10,-1 -15,-4 -15,-9l3 -12c16,-36 25,-164 25,-384 0,-105 -3,-171 -8,-198 -6,-26 -10,-43 -13,-50l-5 -10c-3,-3 -4,-6 -4,-11 0,-5 4,-9 12,-12 51,-20 119,-31 202,-31 176,0 264,112 264,336 0,88 -15,168 -46,240 -13,28 -27,52 -43,72 -16,20 -38,37 -65,50 -27,14 -56,20 -88,20 -7,-1 -15,-2 -25,-3 -10,-1 -25,-6 -45,-15 -20,-9 -34,-20 -41,-34 -24,34 -60,50 -106,50zm837 -577c-52,65 -90,130 -113,196l1 0c92,0 144,0 158,0 14,0 21,0 22,-1 1,-1 2,-3 3,-5 -11,-81 -20,-136 -27,-165 -7,-29 -13,-44 -20,-44 -7,0 -15,7 -25,20zm-88 465l22 -4c7,0 10,4 10,11 0,23 -5,42 -14,58 -9,16 -21,27 -35,34 -22,11 -41,17 -57,17 -30,0 -53,-11 -68,-34 -15,-23 -23,-57 -23,-103 0,-46 13,-105 38,-178l-57 0c-7,0 -11,-4 -11,-11 0,-7 6,-19 17,-35 11,-16 23,-24 36,-24l44 0c47,-104 102,-194 165,-270 16,-20 37,-38 61,-55 24,-17 43,-26 56,-26 13,0 23,6 30,18 17,28 37,129 60,303 8,75 22,153 41,233 19,80 37,127 54,140 4,3 6,6 6,10 0,10 -14,19 -42,28 -28,9 -49,13 -64,13 -15,0 -26,-2 -34,-5 -8,-4 -13,-7 -15,-11 -12,-26 -24,-87 -36,-184l-6 -46c-3,-31 -5,-54 -8,-70l-7 -5 -206 -1c-8,34 -12,63 -12,88 0,25 1,43 2,55 2,12 7,24 16,37 9,13 22,20 38,20zm852 -208l-1 -118c0,-117 -4,-194 -12,-232 -1,-5 -2,-8 -2,-11 0,-11 11,-21 34,-29 22,-8 40,-12 53,-12 13,0 20,4 20,12 0,1 -1,4 -2,11 -15,81 -23,210 -23,386 0,121 7,207 21,260 3,9 4,13 4,14 0,14 -15,25 -45,34 -30,9 -52,13 -64,13 -20,0 -33,-5 -40,-14 -14,-18 -38,-70 -71,-156 -33,-85 -61,-165 -85,-239l-38 -111c-1,-3 -3,-5 -5,-5 -3,0 -6,2 -9,7 -3,61 -5,122 -5,184 0,61 0,108 1,141 1,33 2,58 3,75 1,17 3,31 4,41 1,10 2,18 3,22 1,5 1,8 1,10 0,13 -11,22 -33,29 -22,7 -41,10 -59,10 -17,0 -26,-4 -26,-12 0,-4 1,-9 3,-15 2,-6 4,-13 7,-23 7,-23 11,-65 14,-126 3,-61 4,-130 4,-208 0,-78 -1,-135 -3,-170 -3,-58 -9,-97 -18,-117 -2,-2 -3,-5 -3,-8 0,-11 17,-21 52,-31 35,-10 62,-15 81,-15 19,0 31,0 34,1 9,-1 15,5 17,16 19,69 46,150 80,244 35,94 65,165 92,214 3,3 6,5 8,5 3,0 5,-27 5,-81zm488 -257c-52,65 -90,130 -113,196l1 0c92,0 144,0 158,0 14,0 21,0 22,-1 1,-1 2,-3 3,-5 -11,-81 -20,-136 -27,-165 -7,-29 -13,-44 -20,-44 -7,0 -15,7 -25,20zm-88 465l22 -4c7,0 10,4 10,11 0,23 -5,42 -14,58 -9,16 -21,27 -35,34 -22,11 -41,17 -57,17 -30,0 -53,-11 -68,-34 -15,-23 -23,-57 -23,-103 0,-46 13,-105 38,-178l-57 0c-7,0 -11,-4 -11,-11 0,-7 6,-19 17,-35 11,-16 23,-24 36,-24l44 0c47,-104 102,-194 165,-270 16,-20 37,-38 61,-55 24,-17 43,-26 56,-26 13,0 23,6 30,18 17,28 37,129 60,303 8,75 22,153 41,233 19,80 37,127 54,140 4,3 6,6 6,10 0,10 -14,19 -42,28 -28,9 -49,13 -64,13 -15,0 -26,-2 -34,-5 -8,-4 -13,-7 -15,-11 -12,-26 -24,-87 -36,-184l-6 -46c-3,-31 -5,-54 -8,-70l-7 -5 -206 -1c-8,34 -12,63 -12,88 0,25 1,43 2,55 2,12 7,24 16,37 9,13 22,20 38,20zm985 -274c-7,2 -11,4 -11,6 0,2 8,6 24,12 16,6 31,15 45,28 14,13 24,28 30,45 9,27 14,56 14,87 0,31 2,56 7,77 5,20 10,35 17,46 13,22 25,36 37,41l7 4c4,3 6,6 6,10 0,10 -16,19 -48,26 -32,8 -57,11 -75,11 -35,0 -57,-14 -67,-42 -10,-28 -14,-76 -14,-144l0 -54c0,-57 -17,-94 -51,-110 -13,-6 -29,-9 -47,-9l-1 0c-6,0 -9,-6 -9,-17 0,-12 3,-23 10,-35 7,-12 13,-18 18,-18 22,0 40,-4 56,-12 16,-8 27,-18 35,-30 15,-25 23,-46 25,-64l0 -13c0,-24 -4,-45 -12,-62 -8,-17 -18,-28 -30,-35 -20,-11 -40,-16 -60,-16 -20,0 -37,2 -50,5 -18,5 -28,11 -28,17 -6,86 -9,169 -9,249 0,80 1,141 3,184 2,42 5,77 7,103 2,26 3,41 3,46 0,9 -2,14 -7,18 -27,25 -69,38 -127,38 -10,0 -15,-3 -15,-10 0,-2 1,-7 3,-14 7,-15 11,-63 14,-144 3,-81 4,-155 4,-222 0,-67 -1,-121 -4,-162 -4,-63 -11,-100 -20,-113 -7,-9 -11,-16 -11,-19 0,-4 4,-7 11,-11 42,-20 119,-30 229,-30 89,0 155,25 200,75 24,28 36,62 36,104 0,25 -5,47 -15,67 -10,20 -22,35 -37,45 -28,21 -54,34 -78,39l-15 3zm529 -192c-52,65 -90,130 -113,196l1 0c92,0 144,0 158,0 14,0 21,0 22,-1 1,-1 2,-3 3,-5 -11,-81 -20,-136 -27,-165 -7,-29 -13,-44 -20,-44 -7,0 -15,7 -25,20zm-88 465l22 -4c7,0 10,4 10,11 0,23 -5,42 -14,58 -9,16 -21,27 -35,34 -22,11 -41,17 -57,17 -30,0 -53,-11 -68,-34 -15,-23 -23,-57 -23,-103 0,-46 13,-105 38,-178l-57 0c-7,0 -11,-4 -11,-11 0,-7 6,-19 17,-35 11,-16 23,-24 36,-24l44 0c47,-104 102,-194 165,-270 16,-20 37,-38 61,-55 24,-17 43,-26 56,-26 13,0 23,6 30,18 17,28 37,129 60,303 8,75 22,153 41,233 19,80 37,127 54,140 4,3 6,6 6,10 0,10 -14,19 -42,28 -28,9 -49,13 -64,13 -15,0 -26,-2 -34,-5 -8,-4 -13,-7 -15,-11 -12,-26 -24,-87 -36,-184l-6 -46c-3,-31 -5,-54 -8,-70l-7 -5 -206 -1c-8,34 -12,63 -12,88 0,25 1,43 2,55 2,12 7,24 16,37 9,13 22,20 38,20zm794 -541l-4 -37c0,-12 15,-20 45,-25 30,-5 60,-7 89,-7 29,0 43,5 43,15 0,5 -3,10 -10,17 -26,27 -57,71 -93,132 -37,61 -67,116 -90,164l-36 71c-12,25 -18,53 -18,82 0,30 1,60 3,89 2,29 4,54 6,75 2,20 3,32 3,36 0,16 -15,30 -45,40 -30,10 -55,15 -75,15 -19,0 -29,-4 -29,-11l3 -13c11,-60 17,-131 17,-213 0,-20 -3,-46 -10,-76l-3 -13c-42,-114 -82,-198 -119,-252 -32,-48 -55,-76 -69,-85l-9 -6c-7,-4 -10,-9 -10,-14 0,-11 17,-23 51,-35 34,-12 60,-18 78,-18 17,0 29,5 35,16 59,124 105,224 138,300 2,4 5,6 8,6 4,0 8,-4 13,-12 5,-8 12,-20 22,-38 10,-17 23,-48 40,-91 16,-44 25,-81 25,-113zm427 76c-52,65 -90,130 -113,196l1 0c92,0 144,0 158,0 14,0 21,0 22,-1 1,-1 2,-3 3,-5 -11,-81 -20,-136 -27,-165 -7,-29 -13,-44 -20,-44 -7,0 -15,7 -25,20zm-88 465l22 -4c7,0 10,4 10,11 0,23 -5,42 -14,58 -9,16 -21,27 -35,34 -22,11 -41,17 -57,17 -30,0 -53,-11 -68,-34 -15,-23 -23,-57 -23,-103 0,-46 13,-105 38,-178l-57 0c-7,0 -11,-4 -11,-11 0,-7 6,-19 17,-35 11,-16 23,-24 36,-24l44 0c47,-104 102,-194 165,-270 16,-20 37,-38 61,-55 24,-17 43,-26 56,-26 13,0 23,6 30,18 17,28 37,129 60,303 8,75 22,153 41,233 19,80 37,127 54,140 4,3 6,6 6,10 0,10 -14,19 -42,28 -28,9 -49,13 -64,13 -15,0 -26,-2 -34,-5 -8,-4 -13,-7 -15,-11 -12,-26 -24,-87 -36,-184l-6 -46c-3,-31 -5,-54 -8,-70l-7 -5 -206 -1c-8,34 -12,63 -12,88 0,25 1,43 2,55 2,12 7,24 16,37 9,13 22,20 38,20zm-4750 746c-52,65 -90,130 -113,196l1 0c92,0 144,0 158,0 14,0 21,0 22,-1 1,-1 2,-3 3,-5 -11,-81 -20,-136 -27,-165 -7,-29 -13,-44 -20,-44 -7,0 -15,7 -25,20zm-88 465l22 -4c7,0 10,4 10,11 0,23 -5,42 -14,58 -9,16 -21,27 -35,34 -22,11 -41,17 -57,17 -30,0 -53,-11 -68,-34 -15,-23 -23,-57 -23,-103 0,-46 13,-105 38,-178l-57 0c-7,0 -11,-4 -11,-11 0,-7 6,-19 17,-35 11,-16 23,-24 36,-24l44 0c47,-104 102,-194 165,-270 16,-20 37,-38 61,-55 24,-17 43,-26 56,-26 13,0 23,6 30,18 17,28 37,129 60,303 8,75 22,153 41,233 19,80 37,127 54,140 4,3 6,6 6,10 0,10 -14,19 -42,28 -28,9 -49,13 -64,13 -15,0 -26,-2 -34,-5 -8,-4 -13,-7 -15,-11 -12,-26 -24,-87 -36,-184l-6 -46c-3,-31 -5,-54 -8,-70l-7 -5 -206 -1c-8,34 -12,63 -12,88 0,25 1,43 2,55 2,12 7,24 16,37 9,13 22,20 38,20zm524 -130c-4,-14 -14,-62 -32,-141 -17,-80 -35,-143 -52,-191 -18,-47 -39,-79 -63,-95 -7,-3 -10,-8 -10,-13 0,-13 18,-23 53,-31 36,-8 63,-12 82,-12 19,0 31,6 35,17 12,24 27,79 45,164 38,178 65,290 83,336 4,9 9,14 15,14 6,0 12,-6 18,-17 6,-12 15,-28 26,-49 11,-21 26,-59 44,-114 18,-55 28,-102 28,-142 0,-62 -20,-106 -61,-131 -3,-4 -5,-8 -5,-13 0,-14 19,-28 57,-41 38,-14 73,-21 104,-21 20,0 31,10 31,29 0,59 -12,128 -36,206 -24,78 -52,150 -85,217 -33,67 -64,125 -92,173 -45,76 -73,114 -85,114 -6,0 -12,-5 -17,-14 -20,-28 -43,-93 -71,-195l-13 -49zm649 -206c0,204 5,338 14,401 0,16 -15,29 -45,39 -30,10 -55,15 -75,15 -20,0 -30,-3 -30,-9 0,-4 1,-9 3,-15 13,-28 19,-139 19,-334 0,-184 -8,-287 -24,-307l-4 -6c-4,-3 -6,-7 -6,-12 0,-5 4,-9 11,-12 10,-6 27,-12 53,-18 25,-6 48,-9 69,-9 20,0 31,5 31,14l0 3c-8,68 -13,152 -15,250zm421 -128c-52,65 -90,130 -113,196l1 0c92,0 144,0 158,0 14,0 21,0 22,-1 1,-1 2,-3 3,-5 -11,-81 -20,-136 -27,-165 -7,-29 -13,-44 -20,-44 -7,0 -15,7 -25,20zm-88 465l22 -4c7,0 10,4 10,11 0,23 -5,42 -14,58 -9,16 -21,27 -35,34 -22,11 -41,17 -57,17 -30,0 -53,-11 -68,-34 -15,-23 -23,-57 -23,-103 0,-46 13,-105 38,-178l-57 0c-7,0 -11,-4 -11,-11 0,-7 6,-19 17,-35 11,-16 23,-24 36,-24l44 0c47,-104 102,-194 165,-270 16,-20 37,-38 61,-55 24,-17 43,-26 56,-26 13,0 23,6 30,18 17,28 37,129 60,303 8,75 22,153 41,233 19,80 37,127 54,140 4,3 6,6 6,10 0,10 -14,19 -42,28 -28,9 -49,13 -64,13 -15,0 -26,-2 -34,-5 -8,-4 -13,-7 -15,-11 -12,-26 -24,-87 -36,-184l-6 -46c-3,-31 -5,-54 -8,-70l-7 -5 -206 -1c-8,34 -12,63 -12,88 0,25 1,43 2,55 2,12 7,24 16,37 9,13 22,20 38,20z"/>
   <path class="fil0 str0" d="M4333 4086l142 8c63,0 109,-8 136,-23 4,-3 7,-4 10,-4 3,0 4,5 4,14 0,9 -6,24 -17,45 -16,32 -40,48 -71,48l-54 -1c-5,0 -9,3 -10,9 -5,97 -7,201 -7,314 0,112 5,197 14,253l0 5c0,16 -16,30 -47,40 -31,10 -61,15 -88,15 -13,0 -20,-4 -20,-11 0,-2 1,-7 3,-14 7,-14 14,-85 19,-210 6,-126 8,-221 8,-284l-2 -108c0,-4 -2,-6 -6,-7 -14,-3 -30,-4 -47,-4 -36,0 -62,7 -79,22 -5,3 -9,5 -13,5 -4,0 -6,-3 -6,-8 0,-8 4,-19 12,-33 8,-14 17,-26 26,-36 22,-24 53,-36 92,-36zm556 266c0,204 5,338 14,401 0,16 -15,29 -45,39 -30,10 -55,15 -75,15 -20,0 -30,-3 -30,-9 0,-4 1,-9 3,-15 13,-28 19,-139 19,-334 0,-184 -8,-287 -24,-307l-4 -6c-4,-3 -6,-7 -6,-12 0,-5 4,-9 11,-12 10,-6 27,-12 53,-18 25,-6 48,-9 69,-9 20,0 31,5 31,14l0 3c-8,68 -13,152 -15,250zm423 -197c-24,0 -43,9 -59,26 -28,30 -41,69 -41,115 0,46 12,74 36,83 6,2 9,6 9,13 0,20 -7,36 -20,50 -13,13 -29,22 -48,24 -6,0 -9,2 -9,7 -1,7 -1,18 -1,31 0,14 1,28 2,44 1,16 4,35 9,57 5,22 12,41 20,57 8,16 20,30 36,41 15,12 36,17 60,17 25,0 47,-10 67,-30 20,-20 34,-45 41,-77 14,-55 22,-108 22,-160 0,-51 -3,-96 -10,-135 -7,-39 -14,-68 -23,-89 -9,-20 -20,-37 -32,-49 -13,-13 -23,-20 -32,-23 -9,-3 -17,-4 -26,-4zm-180 98l4 -6c7,-30 17,-56 32,-79 15,-22 30,-39 44,-49 15,-11 31,-19 50,-25 24,-8 46,-12 64,-12 44,0 82,10 114,31 32,20 56,48 73,83 30,67 45,142 45,226 0,142 -33,245 -99,309 -32,32 -68,53 -107,64 -24,7 -48,11 -70,11 -82,0 -143,-28 -182,-84 -39,-56 -58,-128 -58,-214 0,-50 4,-96 13,-138 9,-42 17,-71 27,-88l13 -26c3,-6 7,-9 13,-9 6,0 10,0 13,1 3,1 5,2 7,3 2,1 3,1 3,1zm931 227l-1 -118c0,-117 -4,-194 -12,-232 -1,-5 -2,-8 -2,-11 0,-11 11,-21 34,-29 22,-8 40,-12 53,-12 13,0 20,4 20,12 0,1 -1,4 -2,11 -15,81 -23,210 -23,386 0,121 7,207 21,260 3,9 4,13 4,14 0,14 -15,25 -45,34 -30,9 -52,13 -64,13 -20,0 -33,-5 -40,-14 -14,-18 -38,-70 -71,-156 -33,-85 -61,-165 -85,-239l-38 -111c-1,-3 -3,-5 -5,-5 -3,0 -6,2 -9,7 -3,61 -5,122 -5,184 0,61 0,108 1,141 1,33 2,58 3,75 1,17 3,31 4,41 1,10 2,18 3,22 1,5 1,8 1,10 0,13 -11,22 -33,29 -22,7 -41,10 -59,10 -17,0 -26,-4 -26,-12 0,-4 1,-9 3,-15 2,-6 4,-13 7,-23 7,-23 11,-65 14,-126 3,-61 4,-130 4,-208 0,-78 -1,-135 -3,-170 -3,-58 -9,-97 -18,-117 -2,-2 -3,-5 -3,-8 0,-11 17,-21 52,-31 35,-10 62,-15 81,-15 19,0 31,0 34,1 9,-1 15,5 17,16 19,69 46,150 80,244 35,94 65,165 92,214 3,3 6,5 8,5 3,0 5,-27 5,-81z"/>
  </g>
  <path class="fil1" d="M6081 1021l304 27c-1043,1144 -3510,188 -5064,1176 -545,87 -887,250 -1188,429l-134 -175c287,-190 644,-360 1246,-459 1425,-931 3674,-158 4835,-997z"/>
  <path class="fil1" d="M1668 2227l670 -8c242,-177 585,-294 1168,-403 -542,-88 -1425,63 -1838,411z"/>
  <path class="fil1" d="M8052 1386c-73,72 -201,115 -294,168 -1229,695 -4149,-65 -5036,669 2146,-448 3375,896 5330,-837z"/>
  <path class="fil1" d="M8311 50c-597,-126 -973,-15 -1404,350l316 15c184,-196 418,-261 673,-213l-141 209 232 3 323 -365z"/>
  <polygon class="fil1" points="6759,550 7032,563 6925,673 6615,657 "/>
  <polygon class="fil1" points="6441,769 6736,792 6574,902 6321,873 "/>
  <path class="fil1" d="M7217 1064l234 5c-164,168 -276,368 -339,597l-191 -69c63,-225 152,-379 296,-533z"/>
  <polygon class="fil1" points="7704,526 7944,524 7823,665 7567,666 "/>
  <polygon class="fil1" points="7452,789 7709,778 7568,914 7315,931 "/>
 </g>
</svg>
