<?xml version="1.0" encoding="UTF-8"?>
<!DOCTYPE svg PUBLIC "-//W3C//DTD SVG 1.0//EN" "http://www.w3.org/TR/2001/REC-SVG-20010904/DTD/svg10.dtd">
<!-- Creator: CorelDRAW 2017 -->
<svg xmlns="http://www.w3.org/2000/svg" xml:space="preserve" width="9.66257in" height="4.00743in" version="1.0" style="shape-rendering:geometricPrecision; text-rendering:geometricPrecision; image-rendering:optimizeQuality; fill-rule:evenodd; clip-rule:evenodd"
viewBox="0 0 9923 4115"
 xmlns:xlink="http://www.w3.org/1999/xlink">
 <defs>
  <style type="text/css">
   <![CDATA[
    .fil0 {fill:#75030A}
    .fil1 {fill:#75030A;fill-rule:nonzero}
   ]]>
  </style>
 </defs>
 <g id="Layer_x0020_1">
  <metadata id="CorelCorpID_0Corel-Layer"/>
  <g id="_2679304698320">
   <path class="fil0" d="M7157 1164l347 30c-1189,1305 -4002,214 -5773,1340 -622,99 -1011,285 -1354,489l-153 -200c328,-217 734,-411 1420,-523 1624,-1062 4189,-180 5513,-1136z"/>
   <path class="fil0" d="M2126 2590l763 -9c276,-202 667,-335 1332,-460 -617,-101 -1625,72 -2095,468z"/>
   <path class="fil0" d="M9404 1662c-84,82 -229,131 -335,192 -1401,792 -4730,-74 -5741,763 2447,-510 3847,1021 6077,-954z"/>
   <path class="fil0" d="M9699 57c-681,-143 -1109,-17 -1600,399l360 17c210,-223 477,-297 768,-243l-160 239 265 4 368 -416z"/>
   <polygon class="fil0" points="7929,627 8241,642 8119,767 7766,749 "/>
   <polygon class="fil0" points="7567,876 7903,903 7718,1028 7430,996 "/>
   <path class="fil0" d="M8452 1213l267 6c-187,192 -315,420 -386,681l-218 -79c71,-257 173,-432 337,-608z"/>
   <polygon class="fil0" points="9008,600 9281,597 9143,758 8850,759 "/>
   <polygon class="fil0" points="8719,900 9012,886 8853,1042 8563,1061 "/>
  </g>
  <path class="fil1" d="M197 4115c-131,0 -197,-63 -197,-189 0,-94 16,-180 47,-259 17,-44 38,-82 63,-116 25,-34 57,-61 96,-82 39,-21 82,-31 130,-31 47,0 94,7 141,21l23 8 -31 98c-40,-8 -86,-12 -138,-12 -40,0 -75,18 -105,53 -30,35 -53,80 -68,135 -15,54 -22,113 -22,175 0,56 26,84 78,84 49,0 94,-3 134,-10l22 -3 -11 103c-60,17 -114,25 -162,25z"/>
  <polygon id="1" class="fil1" points="442,4104 592,3450 976,3450 949,3565 699,3565 663,3719 861,3719 834,3835 637,3835 602,3988 853,3988 827,4104 "/>
  <polygon id="2" class="fil1" points="920,4104 1071,3450 1281,3450 1316,3962 1327,3962 1444,3450 1571,3450 1421,4104 1221,4104 1178,3582 1167,3582 1045,4104 "/>
  <path id="3" class="fil1" d="M1780 4104l-235 0 151 -654 206 0c144,0 215,66 215,199 0,94 -17,178 -52,254 -39,85 -93,143 -161,174 -38,18 -79,27 -125,27zm159 -241c14,-36 25,-73 32,-110 7,-37 11,-71 11,-103 0,-32 -9,-54 -26,-66 -18,-12 -44,-19 -79,-19l-73 0 -97 423 86 0c33,0 62,-12 87,-36 26,-24 45,-54 60,-90z"/>
  <path id="4" class="fil1" d="M2063 4104l294 -654 229 0 -20 654 -133 0 4 -113 -190 0 -51 113 -133 0zm372 -538l-138 309 145 0 13 -309 -20 0z"/>
  <polygon id="5" class="fil1" points="2642,4104 2793,3450 3003,3450 3038,3962 3050,3962 3166,3450 3294,3450 3143,4104 2943,4104 2901,3582 2889,3582 2767,4104 "/>
  <path id="6" class="fil1" d="M3218 4104l294 -654 229 0 -20 654 -133 0 4 -113 -190 0 -51 113 -133 0zm372 -538l-138 309 145 0 13 -309 -20 0z"/>
  <path id="7" class="fil1" d="M4348 3450c69,0 120,15 153,44 33,29 49,75 49,138 0,63 -14,115 -41,158 -28,42 -62,72 -105,88l53 226 -133 0 -43 -208 -91 0 -48 208 -133 0 151 -654 188 0zm-47 333c35,0 62,-14 82,-41 20,-28 30,-58 30,-91 0,-33 -5,-56 -16,-68 -11,-12 -30,-18 -57,-18l-74 0 -51 219 86 0z"/>
  <path id="8" class="fil1" d="M4486 4104l294 -654 229 0 -20 654 -133 0 4 -113 -190 0 -51 113 -133 0zm372 -538l-138 309 145 0 13 -309 -20 0z"/>
  <polygon id="9" class="fil1" points="5587,3450 5318,3827 5252,4104 5129,4104 5195,3821 5104,3450 5238,3450 5284,3705 5447,3450 "/>
  <path id="10" class="fil1" d="M5401 4104l294 -654 229 0 -20 654 -133 0 4 -113 -190 0 -51 113 -133 0zm372 -538l-138 309 145 0 13 -309 -20 0z"/>
  <path id="11" class="fil1" d="M6142 4104l294 -654 229 0 -20 654 -133 0 4 -113 -190 0 -51 113 -133 0zm372 -538l-138 309 145 0 13 -309 -20 0z"/>
  <polygon id="12" class="fil1" points="7170,3450 7303,3450 7007,4104 6781,4104 6794,3450 6927,3450 6904,3988 6935,3988 "/>
  <polygon id="13" class="fil1" points="7227,4104 7377,3450 7510,3450 7359,4104 "/>
  <path id="14" class="fil1" d="M7434 4104l294 -654 229 0 -20 654 -133 0 4 -113 -190 0 -51 113 -133 0zm372 -538l-138 309 145 0 13 -309 -20 0z"/>
  <polygon id="15" class="fil1" points="8054,3565 8081,3450 8502,3450 8475,3565 8330,3565 8206,4104 8073,4104 8197,3565 "/>
  <polygon id="16" class="fil1" points="8422,4104 8573,3450 8706,3450 8555,4104 "/>
  <path id="17" class="fil1" d="M8851 3888c0,45 7,74 21,89 14,15 37,23 70,23 33,0 60,-11 82,-33 30,-30 54,-76 73,-136 18,-61 27,-120 27,-179 0,-35 -7,-60 -20,-75 -13,-15 -37,-23 -70,-23 -33,0 -60,10 -79,29 -32,31 -57,79 -76,143 -19,64 -28,118 -28,162zm409 -249c0,88 -13,170 -39,246 -26,76 -65,133 -115,173 -50,39 -110,59 -179,59 -142,0 -212,-67 -212,-200 0,-84 13,-163 38,-237 26,-74 63,-133 112,-175 49,-43 110,-64 183,-64 142,0 212,67 212,200z"/>
  <polygon id="18" class="fil1" points="9271,4104 9422,3450 9632,3450 9667,3962 9678,3962 9795,3450 9923,3450 9772,4104 9572,4104 9529,3582 9518,3582 9396,4104 "/>
 </g>
</svg>
